<?xml version="1.0" encoding="UTF-8"?>
<svg width="12px" height="16px" viewBox="0 0 12 16" version="1.1" xmlns="http://www.w3.org/2000/svg" xmlns:xlink="http://www.w3.org/1999/xlink">
    <!-- Generator: Sketch 46.2 (44496) - http://www.bohemiancoding.com/sketch -->
    <title>github</title>
    <desc>Created with Sketch.</desc>
    <defs></defs>
    <g id="Page-1" stroke="none" stroke-width="1" fill="none" fill-rule="evenodd">
        <g id="github" transform="translate(-9.000000, -7.000000)" fill-rule="nonzero" fill="#FFFFFF">
            <path d="M9.68275437,14.3263721 C9.65905684,14.3263721 9.93944492,14.9697362 9.94711466,14.9697362 C10.5588749,16.1535837 11.7382945,16.889855 13.7273635,17.0939096 C13.4435339,17.3237244 13.102427,17.7593538 13.0549827,18.2630904 C12.6982414,18.5089053 11.9801864,18.5902924 11.4222618,18.4027713 C10.640243,18.1394096 10.3411231,16.4891058 9.17011076,16.724414 C8.91676344,16.7749209 8.96676426,16.9532687 9.18618772,17.1049497 C9.54292907,17.3511913 9.87892278,17.6591399 10.1377274,18.314984 C10.3368949,18.8186139 10.7554367,19.7180329 12.0781231,19.7180329 C12.6034021,19.7180329 12.9711564,19.6505125 12.9711564,19.6505125 C12.9711564,19.6505125 12.9813336,20.9359606 12.9813336,21.4355371 C12.9813336,22.0122874 12.2513314,22.1744751 12.2513314,22.4515969 C12.2513314,22.5609843 12.4932233,22.5715977 12.686786,22.5715977 C13.0702239,22.5715977 13.8683688,22.2305288 13.8683688,21.6312717 C13.8683688,21.155642 13.8755468,19.5563786 13.8755468,19.2755234 C13.8755468,18.6638396 14.1831232,18.4699183 14.1831232,18.4699183 C14.1831232,18.4699183 14.2212261,21.7356457 14.1098673,22.1745285 C13.9784984,22.6891984 13.742113,22.6161846 13.742113,22.8459994 C13.742113,23.1878682 14.7029449,22.9304799 15.0215342,22.1795418 C15.2672609,21.5968182 15.1596387,18.3913045 15.1596387,18.3913045 L15.4223274,18.3853845 C15.4223274,18.3853845 15.4367327,19.8523804 15.4278339,20.523318 C15.4188858,21.2177224 15.3744407,22.0959146 15.7612218,22.5101039 C16.015405,22.7825857 16.8390173,23.2601354 16.8390173,22.8234393 C16.8390173,22.5697843 16.3877808,22.3616763 16.3877808,21.6750053 L16.3877808,18.5145586 C16.748357,18.5145586 16.6940788,19.5536052 16.6940788,19.5536052 L16.7203329,21.4847641 C16.7203329,21.4847641 16.6406856,22.1879152 17.434209,22.4819438 C17.7142529,22.5867444 18.3124436,22.6152779 18.3408118,22.4397568 C18.36918,22.264129 17.6197577,22.0026874 17.612973,21.4590039 C17.6083023,21.1262018 17.6269358,20.9323339 17.6269358,19.4883781 C17.6269358,18.0443156 17.4447794,17.5107656 16.8109441,17.0856429 C18.7665317,16.8714549 19.9773185,16.3554516 20.5670037,14.9743762 C20.6128255,14.9757095 20.8076665,14.3291455 20.7822481,14.3291455 C20.9144037,13.8075421 20.9864305,13.1907916 21,12.4604936 C20.9966568,10.4788277 20.1074092,9.77844996 19.9366591,9.44938121 C20.1882856,7.94931838 19.8942788,7.26734072 19.7578459,7.03293924 C19.2537078,6.84173803 18.004769,7.52467569 17.3218669,8.00537206 C16.2097543,7.6588632 13.8576999,7.69193008 12.9756304,8.09497263 C11.3483667,6.8529381 10.4875365,7.0430193 10.4875365,7.0430193 C10.4875365,7.0430193 9.9308902,8.10643937 10.3401398,9.66207589 C9.80507693,10.3896005 9.40551285,10.9043238 9.40551285,12.2683324 C9.40649615,13.0376706 9.49125664,13.7256216 9.68275437,14.3263721 Z" id="Shape"></path>
        </g>
    </g>
</svg>