<?xml version="1.0" encoding="UTF-8"?>
<svg width="16px" height="16px" viewBox="0 0 16 16" version="1.1" xmlns="http://www.w3.org/2000/svg" xmlns:xlink="http://www.w3.org/1999/xlink">
    <!-- Generator: Sketch 46.2 (44496) - http://www.bohemiancoding.com/sketch -->
    <title>Instagram_Color</title>
    <desc>Created with Sketch.</desc>
    <defs></defs>
    <g id="Page-1" stroke="none" stroke-width="1" fill="none" fill-rule="evenodd">
        <g id="social-profiles" transform="translate(-7.000000, -62.000000)" fill="#FFFFFF">
            <g id="Instagram" transform="translate(0.000000, 55.000000)">
                <path d="M15.00075,7 C12.8280607,7 12.5553912,7.0095 11.702049,7.04833333 C10.8503734,7.08733333 10.2690341,7.22216667 9.76036209,7.42 C9.23418994,7.62433333 8.78785196,7.89766667 8.34318066,8.3425 C7.89817602,8.78716667 7.62483984,9.2335 7.41983771,9.7595 C7.22150231,10.2683333 7.0865009,10.8498333 7.04816717,11.7011667 C7.0100001,12.5545 7,12.8273333 7,15 C7,17.1726667 7.00966677,17.4445 7.04833384,18.2978333 C7.08750091,19.1495 7.22233565,19.7308333 7.42000438,20.2395 C7.62450651,20.7656667 7.89784269,21.212 8.34268065,21.6566667 C8.78718528,22.1016667 9.23352327,22.3756667 9.75936208,22.58 C10.2683674,22.7778333 10.8498734,22.9126667 11.7013823,22.9516667 C12.5547245,22.9905 12.8272274,23 14.99975,23 C17.172606,23 17.4444421,22.9905 18.2977844,22.9516667 C19.1494599,22.9126667 19.731466,22.7778333 20.2404713,22.58 C20.7664767,22.3756667 21.212148,22.1016667 21.6566527,21.6566667 C22.1016573,21.212 22.3749935,20.7656667 22.5799956,20.2396667 C22.7766643,19.7308333 22.9116657,19.1493333 22.9516662,18.298 C22.9899999,17.4446667 23,17.1726667 23,15 C23,12.8273333 22.9899999,12.5546667 22.9516662,11.7013333 C22.9116657,10.8496667 22.7766643,10.2683333 22.5799956,9.75966667 C22.3749935,9.2335 22.1016573,8.78716667 21.6566527,8.3425 C21.211648,7.8975 20.7666434,7.62416667 20.2399712,7.42 C19.7299659,7.22216667 19.1482932,7.08733333 18.2966177,7.04833333 C17.4432755,7.0095 17.171606,7 14.99825,7 L15.00075,7 Z M14.2830759,8.44166667 C14.4960781,8.44133333 14.7337472,8.44166667 15.00075,8.44166667 C17.1367723,8.44166667 17.3899416,8.44933333 18.2334503,8.48766667 C19.0134585,8.52333333 19.4367962,8.65366667 19.7187992,8.76316667 C20.0921364,8.90816667 20.3583058,9.0815 20.6381421,9.3615 C20.918145,9.6415 21.0914801,9.90816667 21.236815,10.2815 C21.3463161,10.5631667 21.4768175,10.9865 21.5123178,11.7665 C21.5506516,12.6098333 21.558985,12.8631667 21.558985,14.9981667 C21.558985,17.1331667 21.5506516,17.3865 21.5123178,18.2298333 C21.4766508,19.0098333 21.3463161,19.4331667 21.236815,19.7148333 C21.0918135,20.0881667 20.918145,20.354 20.6381421,20.6338333 C20.3581391,20.9138333 20.092303,21.0871667 19.7187992,21.2321667 C19.4371296,21.3421667 19.0134585,21.4721667 18.2334503,21.5078333 C17.3901082,21.5461667 17.1367723,21.5545 15.00075,21.5545 C12.8645611,21.5545 12.6113918,21.5461667 11.7680497,21.5078333 C10.9880415,21.4718333 10.5647038,21.3415 10.2825342,21.232 C9.90919697,21.087 9.64252753,20.9136667 9.36252461,20.6336667 C9.08252169,20.3536667 8.90918655,20.0876667 8.76385171,19.7141667 C8.65435057,19.4325 8.52384921,19.0091667 8.48834884,18.2291667 C8.4500151,17.3858333 8.44234836,17.1325 8.44234836,14.9961667 C8.44234836,12.8598333 8.4500151,12.6078333 8.48834884,11.7645 C8.52401588,10.9845 8.65435057,10.5611667 8.76385171,10.2791667 C8.90885322,9.90583333 9.08252169,9.63916667 9.36252461,9.35916667 C9.64252753,9.07916667 9.90919697,8.90583333 10.2825342,8.7605 C10.5645371,8.6505 10.9880415,8.5205 11.7680497,8.48466667 C12.5060574,8.45133333 12.7920603,8.44133333 14.2830759,8.43966667 L14.2830759,8.44166667 Z M19.2711278,9.77 C18.7411223,9.77 18.3111178,10.1995 18.3111178,10.7296667 C18.3111178,11.2596667 18.7411223,11.6896667 19.2711278,11.6896667 C19.8011333,11.6896667 20.2311378,11.2596667 20.2311378,10.7296667 C20.2311378,10.1996667 19.8011333,9.76966667 19.2711278,9.76966667 L19.2711278,9.77 Z M15.00075,10.8916667 C12.731893,10.8916667 10.8923739,12.7311667 10.8923739,15 C10.8923739,17.2688333 12.731893,19.1075 15.00075,19.1075 C17.269607,19.1075 19.1084595,17.2688333 19.1084595,15 C19.1084595,12.7311667 17.2694403,10.8916667 15.0005833,10.8916667 L15.00075,10.8916667 Z M15.00075,12.3333333 C16.473432,12.3333333 17.6674445,13.5271667 17.6674445,15 C17.6674445,16.4726667 16.473432,17.6666667 15.00075,17.6666667 C13.5279013,17.6666667 12.3340556,16.4726667 12.3340556,15 C12.3340556,13.5271667 13.5279013,12.3333333 15.00075,12.3333333 L15.00075,12.3333333 Z" id="Shape"></path>
            </g>
        </g>
    </g>
</svg>