<svg width="16px" height="12px" viewBox="0 0 16 12" version="1.1" xmlns="http://www.w3.org/2000/svg">
    <g stroke="none" stroke-width="1" fill="none" fill-rule="evenodd">
        <g fill="#FFFFFF">
            <g>
                <g>
                    <path d="M14.6666667,12 L1.33333333,12 C0.596953667,12 0,11.4030463 0,10.6666667 L0,1.33333333 C0,0.596953667 0.596953667,0 1.33333333,0 L14.6666667,0 C15.4030463,0 16,0.596953667 16,1.33333333 L16,10.6666667 C16,11.4030463 15.4030463,12 14.6666667,12 L14.6666667,12 Z M3.59333333,1.33333333 L8,5.73933333 L12.4066667,1.33333333 L3.59333333,1.33333333 L3.59333333,1.33333333 Z M14.6666667,1.33333333 L14.26,1.33333333 L8.52666667,7.06666667 C8.51180446,7.09392563 8.49391347,7.11942028 8.47333333,7.14266667 C8.20860722,7.39596107 7.79139278,7.39596107 7.52666667,7.14266667 C7.50608653,7.11942028 7.48819554,7.09392563 7.47333333,7.06666667 L1.74,1.33333333 L1.33333333,1.33333333 L1.33333333,10.6666667 L14.6666667,10.6666667 L14.6666667,1.33333333 L14.6666667,1.33333333 Z"></path>
                </g>
            </g>
        </g>
    </g>
</svg>