<?xml version="1.0" encoding="UTF-8"?>
<svg width="16px" height="9px" viewBox="0 0 16 9" version="1.1" xmlns="http://www.w3.org/2000/svg" xmlns:xlink="http://www.w3.org/1999/xlink">
    <!-- Generator: Sketch 46.2 (44496) - http://www.bohemiancoding.com/sketch -->
    <title>VK_Color</title>
    <desc>Created with Sketch.</desc>
    <defs></defs>
    <g id="Page-1" stroke="none" stroke-width="1" fill="none" fill-rule="evenodd">
        <g id="social-profiles" transform="translate(-7.000000, -121.000000)" fill="#FFFFFF">
            <g id="VK" transform="translate(0.000000, 110.000000)">
                <path d="M15.784664,19.9623829 C15.784664,19.9623829 16.0734289,19.9307478 16.2213328,19.7741154 C16.3567158,19.6306 16.3520204,19.3597726 16.3520204,19.3597726 C16.3520204,19.3597726 16.3340216,18.0951397 16.9295502,17.9084154 C17.5164706,17.7247775 18.2700765,19.1313825 19.0698534,19.6722658 C19.6739902,20.0812074 20.1325707,19.9917032 20.1325707,19.9917032 L22.2697437,19.9623829 C22.2697437,19.9623829 23.3872402,19.8944831 22.8574467,19.0279897 C22.8136233,18.9570036 22.5483353,18.3868 21.2688487,17.2155293 C19.9283224,15.9894759 20.1083113,16.187774 21.7219513,14.0666784 C22.7048474,12.7750399 23.0976928,11.9864769 22.9748308,11.6492929 C22.8582293,11.3267691 22.1351433,11.4124154 22.1351433,11.4124154 L19.729552,11.4270756 C19.729552,11.4270756 19.5511282,11.4031563 19.4188754,11.4810867 C19.2897529,11.557474 19.2060189,11.7357108 19.2060189,11.7357108 C19.2060189,11.7357108 18.8256945,12.7349174 18.3178127,13.5852074 C17.2464872,15.3783781 16.8184266,15.4732834 16.643133,15.3621748 C16.2354189,15.1021496 16.3371518,14.3189877 16.3371518,13.7626727 C16.3371518,12.0242847 16.6047875,11.2997635 15.816749,11.1122676 C15.5553738,11.049769 15.3628638,11.0088748 14.6937745,11.0019305 C13.8353056,10.9934431 13.1090893,11.0050169 12.6974624,11.203315 C12.4235662,11.3352566 12.2122749,11.6300032 12.3413974,11.6469782 C12.5002572,11.6678111 12.8602351,11.7426551 13.0511798,11.9988223 C13.2976864,12.3298336 13.2890783,13.0721013 13.2890783,13.0721013 C13.2890783,13.0721013 13.4307217,15.1183529 12.9580551,15.3722054 C12.634075,15.5465843 12.1895806,15.1908822 11.2340741,13.563603 C10.7449738,12.7302878 10.3756052,11.8090117 10.3756052,11.8090117 C10.3756052,11.8090117 10.3043921,11.6369475 10.1768348,11.544357 C10.0226703,11.4324767 9.80746616,11.3977552 9.80746616,11.3977552 L7.52160665,11.4124154 C7.52160665,11.4124154 7.17806255,11.4216745 7.05207029,11.5690478 C6.94016412,11.6994462 7.04346212,11.9702736 7.04346212,11.9702736 C7.04346212,11.9702736 8.83317821,16.0990414 10.8600102,18.1800144 C12.7185916,20.0873801 14.828375,19.9623829 14.828375,19.9623829 L15.784664,19.9623829 Z" id="Shape"></path>
            </g>
        </g>
    </g>
</svg>