<?xml version="1.0" standalone="no"?>
<!DOCTYPE svg PUBLIC "-//W3C//DTD SVG 20010904//EN"
 "http://www.w3.org/TR/2001/REC-SVG-20010904/DTD/svg10.dtd">
<svg version="1.0" xmlns="http://www.w3.org/2000/svg"
 width="756.000000pt" height="756.000000pt" viewBox="0 0 756.000000 756.000000"
 preserveAspectRatio="xMidYMid meet">
<metadata>
Created by potrace 1.11, written by Peter Selinger 2001-2013
</metadata>
<g transform="translate(0.000000,756.000000) scale(0.100000,-0.100000)"
fill="#000000" stroke="none">
<path d="M0 3780 l0 -3780 3780 0 3780 0 0 3780 0 3780 -3780 0 -3780 0 0
-3780z m3395 2691 c375 -63 665 -210 924 -468 73 -73 121 -128 118 -136 -3 -8
-146 -203 -318 -435 l-313 -421 -84 90 c-128 135 -242 206 -407 250 -108 29
-329 32 -425 5 -358 -99 -612 -473 -704 -1036 -45 -279 -55 -696 -22 -970 59
-496 206 -845 439 -1041 143 -120 263 -163 462 -163 153 -1 250 18 340 67 l60
32 3 488 2 487 -280 0 -280 0 0 510 0 510 795 0 795 0 0 -1390 0 -1389 -92
-61 c-187 -124 -484 -249 -714 -299 -230 -51 -612 -75 -834 -52 -561 57 -1004
311 -1347 773 -246 331 -430 829 -497 1348 -41 317 -46 792 -11 1095 147 1271
809 2106 1765 2224 125 16 487 5 625 -18z"/>
</g>
</svg>
